<svg width="88" height="68" viewBox="0 0 88 68" fill="none" xmlns="http://www.w3.org/2000/svg">
<g clip-path="url(#clip0_16_1472)">
<path d="M8.48913 65.9659C8.37916 65.5865 8.14073 65.2571 7.81466 65.0342C7.5013 64.808 7.12555 64.6845 6.7391 64.6806H4.10488C3.71844 64.6845 3.34267 64.808 3.02931 65.0342C2.69018 65.2544 2.43544 65.5827 2.30646 65.9659L2.03353 66.6888C1.94165 67.0516 1.7397 67.3771 1.45541 67.6205C1.24882 67.8265 0.97547 67.9518 0.684602 67.9741C0.561629 67.9809 0.439423 67.9508 0.333583 67.8878C0.227742 67.8249 0.143065 67.7318 0.0903538 67.6205C0.0282661 67.472 -0.000994132 67.3119 0.00457519 67.1511C0.0101445 66.9903 0.0504077 66.8326 0.122617 66.6888L4.04213 55.2359C4.09045 55.0643 4.16611 54.9016 4.26621 54.7541C4.36076 54.6056 4.47419 54.47 4.60366 54.3508C4.72733 54.2402 4.86257 54.1433 5.00701 54.0617C5.12677 53.9991 5.25776 53.9608 5.39241 53.9492C5.55145 53.9576 5.70723 53.9976 5.85065 54.0669C5.99407 54.1361 6.12227 54.2333 6.22777 54.3526C6.49894 54.5874 6.69914 54.8934 6.80587 55.2359L10.7254 66.6888C10.8554 66.9837 10.867 67.3173 10.7577 67.6205C10.7102 67.7324 10.629 67.8266 10.5253 67.89C10.4216 67.9534 10.3008 67.9828 10.1795 67.9741C9.88158 67.9616 9.59982 67.835 9.39259 67.6205C9.12303 67.3702 8.93305 67.0462 8.8463 66.6888L8.48913 65.9659ZM6.19191 63.139C6.35255 63.1521 6.51386 63.1236 6.66022 63.056C6.80657 62.9885 6.93301 62.8843 7.02727 62.7536C7.1136 62.6223 7.16864 62.4729 7.18814 62.3169C7.20764 62.161 7.19109 62.0027 7.13975 61.8541L5.85491 58.0794C5.72629 57.7419 5.58198 57.5654 5.42109 57.5654C5.2602 57.5654 5.11591 57.7419 4.98729 58.0794L3.70244 61.8541C3.6306 61.9966 3.60004 62.1564 3.61421 62.3153C3.62839 62.4742 3.68673 62.626 3.78265 62.7536C3.8849 62.8837 4.01741 62.9868 4.16863 63.054C4.31985 63.1211 4.48519 63.1503 4.65027 63.139H6.19191Z" fill="white"/>
<path d="M24.5193 63.1547C24.5193 63.4922 24.5032 63.8292 24.4709 64.1827C24.4416 64.5219 24.3715 64.8562 24.2621 65.1786C23.9793 65.9225 23.4817 66.5655 22.8325 67.0258C22.4908 67.2637 22.1179 67.453 21.7242 67.5883C21.3257 67.7305 20.9095 67.817 20.4873 67.8451C20.0638 67.8773 19.638 67.8612 19.2181 67.7971C18.8087 67.7381 18.409 67.6247 18.0296 67.4596C17.3179 67.1894 16.7104 66.7001 16.2948 66.0623C15.8821 65.4368 15.6284 64.7199 15.5558 63.9739C15.5236 63.3313 15.5236 62.6891 15.5397 62.0626C15.5558 61.4361 15.5558 60.7934 15.5558 60.1512V55.3802C15.5586 55.2512 15.5694 55.1225 15.5881 54.9948C15.6245 54.8564 15.6729 54.7214 15.7329 54.5915C15.8005 54.462 15.8933 54.3472 16.0058 54.254C16.1066 54.1625 16.2278 54.0964 16.3594 54.0613C16.507 54.0289 16.6613 54.0517 16.7932 54.1254C16.9634 54.2082 17.1078 54.3359 17.2109 54.4947C17.3063 54.6486 17.3767 54.8166 17.4197 54.9926C17.4587 55.1829 17.4801 55.3764 17.4838 55.5707V63.0884C17.4838 63.3936 17.4838 63.6826 17.4999 63.9878C17.5217 64.2893 17.6152 64.5813 17.7728 64.8393C17.9647 65.1611 18.243 65.4227 18.5759 65.5944C18.9076 65.7579 19.2675 65.856 19.6363 65.8835C20.0217 65.921 20.4102 65.9101 20.7929 65.8512C21.1709 65.7903 21.5258 65.6295 21.821 65.3856C22.0657 65.1924 22.2544 64.9373 22.3673 64.6466C22.4831 64.3586 22.5586 64.0559 22.5914 63.7472C22.6264 63.4219 22.6372 63.0944 22.6236 62.7675C22.6075 62.4462 22.6075 62.1248 22.6075 61.8358V56.6005C22.6075 56.2792 22.5913 55.9417 22.5752 55.5725C22.5516 55.2397 22.6181 54.9066 22.7679 54.6085C22.8329 54.4853 22.9219 54.3763 23.0297 54.2881C23.1374 54.1998 23.2618 54.134 23.3953 54.0945C23.5257 54.057 23.664 54.0567 23.7946 54.0936C23.9251 54.1305 24.0428 54.2031 24.1343 54.3033C24.2692 54.4648 24.3727 54.6501 24.4395 54.8496C24.5053 55.0521 24.5379 55.264 24.5359 55.477V63.1552L24.5193 63.1547Z" fill="white"/>
<path d="M33.7095 67.8611C33.1881 67.8661 32.6688 67.7958 32.1675 67.6523C31.7276 67.5246 31.298 67.3635 30.8826 67.1706C30.5696 67.0296 30.2688 66.863 29.9832 66.6726C29.8592 66.5806 29.7305 66.4948 29.5978 66.4159C29.4918 66.3535 29.4019 66.2673 29.335 66.1642C29.2681 66.0611 29.2261 65.9438 29.2124 65.8216C29.1918 65.7068 29.1954 65.5889 29.223 65.4755C29.2507 65.3621 29.3017 65.2558 29.3728 65.1633C29.445 65.0575 29.5378 64.9672 29.6456 64.898C29.7534 64.8287 29.8739 64.7817 30.0002 64.7599C30.1164 64.7338 30.2369 64.7333 30.3533 64.7583C30.4698 64.7833 30.5794 64.8332 30.6747 64.9047C30.8543 65.0517 31.048 65.1808 31.2528 65.2901C31.5269 65.4484 31.8113 65.5879 32.1043 65.7078C32.4255 65.8378 32.7592 65.9347 33.1001 65.9968C33.4442 66.0663 33.7981 66.0718 34.1442 66.013C34.4166 65.9455 34.6731 65.8254 34.8994 65.6594C35.1661 65.4572 35.4039 65.2194 35.6061 64.9526C35.7567 64.7221 35.8453 64.4566 35.8633 64.1818C35.8633 64.0154 35.8526 63.849 35.8311 63.6839C35.7597 63.427 35.6204 63.194 35.4278 63.0095C35.2258 62.8008 34.9994 62.6174 34.7533 62.4632C34.5264 62.3141 34.2903 62.1794 34.0466 62.0599C33.8814 61.9718 33.7095 61.8969 33.5325 61.8358C33.4362 61.8035 33.2273 61.691 32.8899 61.5306C32.4958 61.3333 32.1196 61.1022 31.7655 60.84C31.3365 60.531 30.9432 60.1754 30.5927 59.7797C30.2243 59.3746 29.9645 58.8827 29.8375 58.3501C29.7978 58.149 29.7763 57.9447 29.7734 57.7397C29.7692 57.5016 29.7962 57.264 29.8537 57.0329C29.9241 56.7618 30.0209 56.4982 30.1427 56.246C30.2941 55.9362 30.4887 55.6495 30.7208 55.3945C31.1845 54.8159 31.8201 54.3997 32.5358 54.206C33.3011 54.0384 34.0985 54.0941 34.8331 54.3664C35.0927 54.4405 35.3454 54.5373 35.5882 54.6555C35.8123 54.768 36.022 54.8966 36.1986 54.993C36.3751 55.1053 36.5197 55.2017 36.6324 55.282C36.7449 55.3622 36.8089 55.4106 36.8412 55.4268C36.9318 55.4981 37.006 55.588 37.0587 55.6906C37.1113 55.7931 37.1413 55.9059 37.1464 56.021C37.159 56.1393 37.1469 56.2589 37.111 56.3723C37.075 56.4857 37.016 56.5904 36.9376 56.6798C36.863 56.7836 36.767 56.8703 36.6562 56.934C36.5454 56.9977 36.4222 57.0369 36.2949 57.0491C36.1738 57.0646 36.0508 57.0508 35.9361 57.0089C35.8215 56.9669 35.7186 56.898 35.6361 56.808C35.62 56.7918 35.5558 56.7436 35.4434 56.6632C35.331 56.583 35.1705 56.4867 34.9953 56.3742C34.7933 56.2527 34.5775 56.1557 34.3526 56.0851C34.111 55.9919 33.8561 55.9377 33.5975 55.9247C33.3358 55.9147 33.0746 55.9528 32.8267 56.0372C32.5461 56.1446 32.2974 56.3215 32.1038 56.5512C31.884 56.792 31.7297 57.0852 31.6557 57.4027C31.6306 57.5414 31.6361 57.684 31.6718 57.8203C31.7382 58.0981 31.8774 58.3532 32.0751 58.5593C32.2925 58.8082 32.5347 59.0342 32.798 59.2338C33.0451 59.4274 33.3084 59.5994 33.585 59.7479C33.7875 59.8674 33.997 59.9746 34.2124 60.0692C34.3087 60.1014 34.5014 60.1816 34.8066 60.3103C35.1529 60.477 35.4859 60.6703 35.8024 60.8884C36.1772 61.1617 36.5266 61.4681 36.8466 61.8039C37.1837 62.1616 37.4363 62.5905 37.5856 63.0588C37.7206 63.4452 37.7752 63.8551 37.746 64.2634C37.6827 64.8669 37.4732 65.4459 37.1357 65.9502C36.8198 66.4238 36.4164 66.8326 35.9472 67.1549C35.4954 67.4618 34.9786 67.6597 34.4373 67.733C34.317 67.7657 34.1928 67.7818 34.0681 67.7809C33.96 67.8447 33.8345 67.8728 33.7095 67.8611Z" fill="white"/>
<path d="M46.7017 67.8611C46.1803 67.8661 45.661 67.7958 45.1596 67.6523C44.7197 67.5246 44.2902 67.3635 43.8748 67.1706C43.5618 67.0296 43.261 66.863 42.9754 66.6726C42.8513 66.5805 42.7227 66.4948 42.59 66.4159C42.484 66.3535 42.394 66.2673 42.3271 66.1642C42.2603 66.0611 42.2183 65.9438 42.2046 65.8216C42.184 65.7068 42.1876 65.5889 42.2152 65.4755C42.2428 65.3621 42.2939 65.2558 42.365 65.1633C42.4372 65.0575 42.53 64.9672 42.6378 64.898C42.7455 64.8287 42.8661 64.7817 42.9924 64.7599C43.1086 64.7338 43.2291 64.7333 43.3455 64.7583C43.462 64.7833 43.5716 64.8332 43.6669 64.9047C43.8465 65.0517 44.0402 65.1808 44.245 65.2901C44.519 65.4484 44.8035 65.5879 45.0965 65.7078C45.4177 65.8378 45.7513 65.9347 46.0922 65.9968C46.4364 66.0663 46.7903 66.0718 47.1364 66.013C47.4088 65.9455 47.6653 65.8254 47.8916 65.6594C48.1583 65.4572 48.3961 65.2194 48.5983 64.9526C48.7487 64.722 48.8371 64.4566 48.8551 64.1818C48.8551 64.0154 48.8443 63.849 48.8228 63.6839C48.7514 63.427 48.6121 63.194 48.4195 63.0095C48.2176 62.8008 47.9911 62.6174 47.745 62.4632C47.5181 62.3141 47.2821 62.1794 47.0383 62.0599C46.8731 61.9718 46.7012 61.8969 46.5243 61.8358C46.4279 61.8035 46.2191 61.691 45.8816 61.5306C45.4876 61.3333 45.1114 61.1022 44.7572 60.84C44.3282 60.531 43.9349 60.1754 43.5844 59.7797C43.216 59.3746 42.9562 58.8827 42.8293 58.3501C42.7895 58.149 42.768 57.9447 42.7652 57.7397C42.761 57.5016 42.7879 57.264 42.8454 57.0329C42.9158 56.7618 43.0126 56.4982 43.1345 56.246C43.2858 55.9362 43.4804 55.6495 43.7126 55.3945C44.1762 54.8159 44.8118 54.3997 45.5276 54.206C46.2929 54.0384 47.0902 54.0941 47.8248 54.3664C48.0845 54.4405 48.3372 54.5373 48.5799 54.6555C48.804 54.768 49.0137 54.8966 49.1903 54.993C49.3669 55.1053 49.5115 55.2017 49.6241 55.282C49.7366 55.3622 49.8007 55.4106 49.8329 55.4268C49.9235 55.4981 49.9977 55.588 50.0504 55.6906C50.103 55.7931 50.133 55.9059 50.1381 56.021C50.1507 56.1393 50.1386 56.2589 50.1027 56.3723C50.0668 56.4857 50.0077 56.5904 49.9293 56.6798C49.8547 56.7836 49.7588 56.8703 49.6479 56.934C49.5371 56.9977 49.4139 57.0369 49.2867 57.0491C49.1656 57.0646 49.0425 57.0508 48.9279 57.0089C48.8132 56.9669 48.7103 56.898 48.6279 56.808C48.6118 56.7918 48.5475 56.7436 48.4352 56.6632C48.3227 56.583 48.1623 56.4867 47.987 56.3742C47.785 56.2527 47.5693 56.1557 47.3444 56.0851C47.1028 55.9919 46.8479 55.9377 46.5892 55.9247C46.3276 55.9147 46.0663 55.9528 45.8184 56.0372C45.5379 56.1446 45.2892 56.3215 45.0956 56.5512C44.8758 56.792 44.7215 57.0852 44.6474 57.4027C44.6223 57.5414 44.6278 57.684 44.6635 57.8203C44.73 58.0981 44.8692 58.3532 45.0669 58.5593C45.2842 58.8082 45.5265 59.0342 45.7897 59.2338C46.0369 59.4274 46.3001 59.5994 46.5767 59.7479C46.7792 59.8674 46.9888 59.9746 47.2041 60.0692C47.3005 60.1014 47.4932 60.1816 47.7984 60.3103C48.1447 60.477 48.4776 60.6703 48.7941 60.8884C49.1689 61.1617 49.5184 61.4681 49.8383 61.8039C50.1755 62.1616 50.428 62.5905 50.5773 63.0588C50.7124 63.4452 50.767 63.8551 50.7378 64.2634C50.6744 64.8669 50.4649 65.4459 50.1274 65.9502C49.8115 66.4238 49.4081 66.8327 48.9389 67.1549C48.4871 67.4618 47.9703 67.6597 47.4291 67.733C47.3087 67.7657 47.1845 67.7818 47.0598 67.7809C46.9512 67.8431 46.8264 67.871 46.7017 67.8611Z" fill="white"/>
<path d="M57.9799 66.5763C57.9901 66.918 57.8948 67.2546 57.707 67.5403C57.6411 67.6617 57.5436 67.7631 57.4249 67.8338C57.3061 67.9044 57.1705 67.9417 57.0323 67.9417C56.8942 67.9417 56.7585 67.9044 56.6398 67.8338C56.521 67.7631 56.4236 67.6617 56.3576 67.5403C56.1699 67.2546 56.0746 66.918 56.0847 66.5763V55.3322C56.0746 54.9905 56.1699 54.6539 56.3576 54.3683C56.4236 54.2468 56.521 54.1454 56.6398 54.0748C56.7585 54.0041 56.8942 53.9668 57.0323 53.9668C57.1705 53.9668 57.3061 54.0041 57.4249 54.0748C57.5436 54.1454 57.6411 54.2468 57.707 54.3683C57.8948 54.6539 57.9901 54.9905 57.9799 55.3322V66.5763Z" fill="white"/>
<path d="M73.4966 54.0631C73.6243 54.0633 73.7494 54.0995 73.8574 54.1677C73.9654 54.2359 74.0519 54.3332 74.107 54.4485C74.1805 54.589 74.2216 54.7442 74.2272 54.9026C74.2327 55.0611 74.2027 55.2188 74.1393 55.3641L70.2359 66.6404C70.1229 66.9839 69.9173 67.2896 69.6416 67.5237C69.4189 67.7346 69.1287 67.8598 68.8224 67.8773C68.5032 67.8755 68.1975 67.7485 67.9709 67.5237C67.6954 67.2826 67.4805 66.98 67.3435 66.6404L63.5056 55.3627C63.4478 55.2166 63.4194 55.0605 63.4222 54.9033C63.425 54.7462 63.4588 54.5911 63.5217 54.4471C63.577 54.3252 63.6682 54.2231 63.783 54.1542C63.8978 54.0854 64.0308 54.0531 64.1644 54.0617C64.312 54.0714 64.4563 54.1104 64.5887 54.1766C64.7211 54.2428 64.8388 54.3348 64.9352 54.4471C65.1907 54.6968 65.3691 55.0146 65.4492 55.3627L68.407 64.1653C68.5195 64.5189 68.6638 64.6954 68.8247 64.6954C68.9856 64.6954 69.1137 64.5189 69.2423 64.1653L72.1338 55.3627C72.245 55.0205 72.4317 54.7075 72.6801 54.4471C72.7813 54.329 72.9063 54.2336 73.0471 54.1674C73.1879 54.1012 73.3411 54.0656 73.4966 54.0631Z" fill="white"/>
<path d="M87.9192 61.838V63.0108C87.9219 63.3973 87.9005 63.7836 87.8551 64.1675C87.8223 64.5441 87.7472 64.9159 87.6311 65.2757C87.506 65.6498 87.3332 66.0062 87.117 66.3361C86.6221 67.009 85.9236 67.5047 85.125 67.7495C84.3233 67.9872 83.4814 68.0583 82.6512 67.9584C81.8471 67.8733 81.0838 67.5614 80.4503 67.0589C79.8172 66.5362 79.3532 65.8376 79.1171 65.0512C78.9749 64.6483 78.9042 64.2236 78.9083 63.7964V60.6011C78.9083 60.2959 78.9083 59.9907 78.8921 59.7016C78.8813 59.4071 78.8867 59.1122 78.9083 58.8183C78.9353 58.0273 79.1096 57.2482 79.4223 56.5211C79.7344 55.793 80.2539 55.1729 80.916 54.7379C81.269 54.5118 81.6532 54.3386 82.0565 54.2239C82.4622 54.0947 82.8856 54.0297 83.3113 54.0312C83.7389 54.0228 84.1658 54.0715 84.5805 54.1759C84.9877 54.2707 85.3779 54.4278 85.7372 54.6416C86.1061 54.8395 86.4377 55.1004 86.7168 55.4124C86.9924 55.7189 87.2199 56.0656 87.3913 56.4405C87.5663 56.8163 87.7014 57.2093 87.7946 57.6133C87.8874 58.0141 87.9412 58.4229 87.9551 58.834V61.8366L87.9192 61.838ZM85.9922 58.9465C86.0104 58.5222 85.9562 58.0978 85.8317 57.6917C85.7261 57.2859 85.5156 56.9149 85.2213 56.6161C84.9231 56.304 84.5363 56.091 84.1131 56.0057C83.7006 55.912 83.273 55.9065 82.8583 55.9896C82.3388 56.0544 81.8628 56.3125 81.525 56.7125C81.2317 57.108 81.0288 57.5631 80.9308 58.0457C80.8161 58.5676 80.7674 59.1018 80.786 59.6358C80.8022 60.1821 80.8021 60.68 80.8021 61.1295V62.8001C80.8021 63.0569 80.8021 63.3303 80.8183 63.6032C80.8166 63.8633 80.849 64.1224 80.9146 64.3741C80.9774 64.622 81.0746 64.8599 81.2037 65.0808C81.3465 65.3071 81.5321 65.5035 81.75 65.6589C82.0841 65.9148 82.4867 66.0657 82.9067 66.0927C83.308 66.1311 83.7126 66.1202 84.1113 66.0604C84.4807 65.999 84.8318 65.8563 85.1393 65.6428C85.4484 65.4234 85.6836 65.1154 85.8138 64.7595C85.9535 64.4462 86.0247 64.1067 86.0227 63.7637C86.0227 63.4262 86.0065 63.0892 86.0065 62.7518C86.0065 62.1244 86.0065 61.4969 85.9904 60.8565C85.9588 60.2202 85.9592 59.5828 85.9917 58.9465H85.9922Z" fill="white"/>
<path d="M50.5396 26.4498L64.884 37.2601C64.9715 37.3252 65.0319 37.4205 65.0534 37.5275C65.0748 37.6345 65.0559 37.7457 65.0002 37.8396C64.9444 37.9335 64.8559 38.0034 64.7517 38.0358C64.6475 38.0682 64.5349 38.0609 64.4358 38.0152L50.588 31.4937C50.4004 31.4063 50.1946 31.365 49.9879 31.3734C49.7811 31.3818 49.5793 31.4397 49.3995 31.5421L18.029 50.0306C17.9439 50.0815 17.8443 50.1025 17.7459 50.0904C17.6475 50.0782 17.5559 50.0335 17.4858 49.9634C17.4157 49.8933 17.371 49.8017 17.3588 49.7033C17.3467 49.6049 17.3677 49.5053 17.4186 49.4202L47.4084 0.604569C47.5239 0.417065 47.6862 0.262784 47.8793 0.15683C48.0724 0.0508759 48.2897 -0.00311385 48.5099 0.000138734C48.7301 0.00339132 48.9457 0.0637786 49.1356 0.175389C49.3255 0.286999 49.4831 0.445997 49.5931 0.636832L70.3949 36.6681C70.4506 36.7659 70.4669 36.8814 70.4404 36.9908C70.4138 37.1003 70.3465 37.1955 70.2522 37.257C70.1579 37.3184 70.0436 37.3416 69.9328 37.3217C69.8219 37.3018 69.7229 37.2403 69.6559 37.1498L56.2589 19.478L50.1389 11.4144C50.0118 11.2473 49.8454 11.1141 49.6545 11.0266C49.4636 10.9391 49.2541 10.9 49.0445 10.9127C48.8349 10.9254 48.6317 10.9896 48.4528 11.0995C48.2739 11.2094 48.1248 11.3618 48.0187 11.543L35.9716 32.2646C35.9228 32.348 35.9026 32.4452 35.9143 32.5412C35.926 32.6372 35.9689 32.7267 36.0364 32.796C36.1038 32.8652 36.1921 32.9105 36.2878 32.9247C36.3834 32.939 36.4811 32.9215 36.5658 32.8749L49.1754 26.3373C49.391 26.2283 49.6326 26.1811 49.8734 26.201C50.1142 26.2208 50.3447 26.307 50.5396 26.4498Z" fill="#1BF472"/>
</g>
<defs>
<clipPath id="clip0_16_1472">
<rect width="87.9525" height="68" fill="white"/>
</clipPath>
</defs>
</svg>
